<svg xmlns="http://www.w3.org/2000/svg" viewBox="0 0 64 64"><g fill="#f15a24"><path d="M32 4a28.05 28.05 0 1 0 28.05 28A28.05 28.05 0 0 0 32 4Zm16.26 36.66a2.17 2.17 0 0 1 0 3l-4.57 4.55a2.12 2.12 0 0 1-3 0L32 39.59l-8.66 8.66a2.13 2.13 0 0 1-3 0l-4.59-4.55a2.15 2.15 0 0 1 0-3L24.4 32l-8.65-8.66a2.15 2.15 0 0 1 0-3l4.56-4.55a2.15 2.15 0 0 1 3 0L32 24.41l8.65-8.66a2.14 2.14 0 0 1 3 0l4.57 4.55a2.17 2.17 0 0 1 0 3L39.6 32Z" opacity=".4"/><path d="M48.26 40.66a2.17 2.17 0 0 1 0 3l-4.57 4.55a2.12 2.12 0 0 1-3 0L32 39.59l-8.66 8.66a2.13 2.13 0 0 1-3 0l-4.59-4.55a2.15 2.15 0 0 1 0-3L24.4 32l-8.65-8.66a2.15 2.15 0 0 1 0-3l4.56-4.55a2.15 2.15 0 0 1 3 0L32 24.41l8.65-8.66a2.14 2.14 0 0 1 3 0l4.57 4.55a2.17 2.17 0 0 1 0 3L39.6 32Z"/></g></svg>