<svg xmlns="http://www.w3.org/2000/svg" viewBox="0 0 64 64"><g data-name="Template" fill="none" stroke-miterlimit="10"><circle cx="32" cy="31.78" r="28" stroke="#f15a24" stroke-width=".1"/><rect x="7" y="6.78" width="50" height="50" rx="1" stroke="#f15a24" stroke-width=".1"/><rect x="4" y="9.78" width="56" height="44" rx="1" stroke="#f15a24" stroke-width=".1"/><rect x="4" y="9.78" width="56" height="44" rx="1" transform="rotate(90 32 31.78)" stroke="#f15a24" stroke-width=".1"/><rect x="4" y="3.78" width="56" height="56" rx="1" stroke="#f15a24" stroke-width=".1"/><path stroke="#1a1a1a" stroke-width=".3" d="M0-.22h64v64H0z"/></g><path d="M47.15 40.07a2 2 0 0 1 0 2.83l-4.26 4.24a2 2 0 0 1-2.82 0L32 39.07l-8.07 8.07a2 2 0 0 1-2.83 0l-4.24-4.24a2 2 0 0 1 0-2.83L24.92 32l-8.06-8.07a2 2 0 0 1 0-2.83l4.25-4.24a2 2 0 0 1 2.83 0L32 24.92l8.06-8.06a2 2 0 0 1 2.82 0l4.26 4.24a2 2 0 0 1 0 2.83L39.08 32Z" fill="#f15a24"/></svg>