<svg xmlns="http://www.w3.org/2000/svg" viewBox="0 0 64 64"><g data-name="Template" fill="none" stroke-miterlimit="10"><circle cx="32" cy="31.78" r="28" stroke="#f15a24" stroke-width=".1"/><rect x="7" y="6.78" width="50" height="50" rx="1" stroke="#f15a24" stroke-width=".1"/><rect x="4" y="9.78" width="56" height="44" rx="1" stroke="#f15a24" stroke-width=".1"/><rect x="4" y="9.78" width="56" height="44" rx="1" transform="rotate(90 32 31.78)" stroke="#f15a24" stroke-width=".1"/><rect x="4" y="3.78" width="56" height="56" rx="1" stroke="#f15a24" stroke-width=".1"/><path stroke="#1a1a1a" stroke-width=".3" d="M0-.22h64v64H0z"/></g><path d="M32 15.69a3.64 3.64 0 1 0 3.63 3.63A3.64 3.64 0 0 0 32 15.69ZM35.63 28v18a2.66 2.66 0 0 1-2.9 2.36h-1.46a2.67 2.67 0 0 1-2.9-2.36V28a2.69 2.69 0 0 1 2.9-2.36h1.46a2.68 2.68 0 0 1 2.9 2.36Z" fill="#1692df"/></svg>