<svg xmlns="http://www.w3.org/2000/svg" viewBox="0 0 64 64"><g fill="#39b54a"><path d="M32 3.73a28.05 28.05 0 1 0 28.05 28.05A28.05 28.05 0 0 0 32 3.73Zm18.81 19.73L30.53 43.75l-.1.12-3.75 3.75a1.79 1.79 0 0 1-2.55 0L12.52 36a1.81 1.81 0 0 1 0-2.55l3.76-3.75a1.79 1.79 0 0 1 2.55 0l6.56 6.56 19.12-19.1a1.79 1.79 0 0 1 2.55 0l3.75 3.74a1.82 1.82 0 0 1 0 2.56Z" opacity=".4"/><path d="M50.81 23.46 30.53 43.75l-.1.12-3.75 3.75a1.79 1.79 0 0 1-2.55 0L12.52 36a1.81 1.81 0 0 1 0-2.55l3.76-3.75a1.79 1.79 0 0 1 2.55 0l6.56 6.56 19.12-19.1a1.79 1.79 0 0 1 2.55 0l3.75 3.74a1.82 1.82 0 0 1 0 2.56Z"/></g></svg>