<svg xmlns="http://www.w3.org/2000/svg" viewBox="0 0 64 64"><g data-name="Template" fill="none" stroke-miterlimit="10"><circle cx="32" cy="31.78" r="28" stroke="#f15a24" stroke-width=".1"/><rect x="7" y="6.78" width="50" height="50" rx="1" stroke="#f15a24" stroke-width=".1"/><rect x="4" y="9.78" width="56" height="44" rx="1" stroke="#f15a24" stroke-width=".1"/><rect x="4" y="9.78" width="56" height="44" rx="1" transform="rotate(90 32 31.78)" stroke="#f15a24" stroke-width=".1"/><rect x="4" y="3.78" width="56" height="56" rx="1" stroke="#f15a24" stroke-width=".1"/><path stroke="#1a1a1a" stroke-width=".3" d="M0-.22h64v64H0z"/></g><path d="M46.58 24.86 30.41 41.09l-.08.09-3 3a1.42 1.42 0 0 1-2 0l-9.28-9.28a1.45 1.45 0 0 1 0-2l3-3a1.42 1.42 0 0 1 2 0l5.23 5.24 15.28-15.32a1.42 1.42 0 0 1 2 0l3 3a1.46 1.46 0 0 1 .02 2.04Z" fill="#39b54a"/></svg>