<svg xmlns="http://www.w3.org/2000/svg" viewBox="0 0 64 64"><g data-name="Template" fill="none" stroke-miterlimit="10"><circle cx="32" cy="31.78" r="28" stroke="#f15a24" stroke-width=".1"/><rect x="7" y="6.78" width="50" height="50" rx="1" stroke="#f15a24" stroke-width=".1"/><rect x="4" y="9.78" width="56" height="44" rx="1" stroke="#f15a24" stroke-width=".1"/><rect x="4" y="9.78" width="56" height="44" rx="1" transform="rotate(90 32 31.78)" stroke="#f15a24" stroke-width=".1"/><rect x="4" y="3.78" width="56" height="56" rx="1" stroke="#f15a24" stroke-width=".1"/><path stroke="#1a1a1a" stroke-width=".3" d="M0-.22h64v64H0z"/></g><g fill="#d9a108"><path d="M49.49 43.05 33.63 15.57a1.89 1.89 0 0 0-3.26 0L14.51 43.05a1.88 1.88 0 0 0 1.62 2.83h31.74a1.88 1.88 0 0 0 1.62-2.83ZM32 41.74a2.26 2.26 0 1 1 2.26-2.26A2.26 2.26 0 0 1 32 41.74Zm2.26-7.65a1.67 1.67 0 0 1-1.81 1.47h-.9a1.67 1.67 0 0 1-1.81-1.47V22.93a1.67 1.67 0 0 1 1.81-1.47h.9a1.67 1.67 0 0 1 1.81 1.47Z"/><path d="M34.26 39.48A2.26 2.26 0 1 1 32 37.22a2.27 2.27 0 0 1 2.26 2.26Zm-1.81-18h-.9a1.67 1.67 0 0 0-1.81 1.47v11.14a1.67 1.67 0 0 0 1.81 1.47h.9a1.67 1.67 0 0 0 1.81-1.47V22.93a1.67 1.67 0 0 0-1.81-1.47Z" opacity=".4"/></g></svg>