<svg xmlns="http://www.w3.org/2000/svg" viewBox="0 0 64 64"><g fill="#d9a108"><path d="M33.17 38.91A1.18 1.18 0 1 1 32 37.74a1.17 1.17 0 0 1 1.17 1.17Zm-.94-12.6h-.47a1 1 0 0 0-.94 1v7.85a1 1 0 0 0 .94 1h.47a1 1 0 0 0 .94-1v-7.82a1 1 0 0 0-.94-1.03ZM60.05 32A28.05 28.05 0 1 1 32 4a28.05 28.05 0 0 1 28.05 28Zm-14.28 9.42-12-20.84a2 2 0 0 0-3.47 0l-12 20.84a2 2 0 0 0 1.73 3H44a2 2 0 0 0 1.77-3Z" opacity=".4"/><path d="m45.77 41.42-12-20.84a2 2 0 0 0-3.47 0l-12 20.84a2 2 0 0 0 1.73 3H44a2 2 0 0 0 1.77-3ZM32 40.08a1.17 1.17 0 1 1 1.17-1.17A1.17 1.17 0 0 1 32 40.08Zm1.17-4.89a1 1 0 0 1-.94 1h-.47a1 1 0 0 1-.94-1v-7.85a1 1 0 0 1 .94-1h.47a1 1 0 0 1 .94 1Z"/></g></svg>